<svg width="32" height="32" viewBox="0 0 32 32" fill="none" xmlns="http://www.w3.org/2000/svg">
<g clip-path="url(#clip0_85_7)">
<path fill-rule="evenodd" clip-rule="evenodd" d="M8.33325 1.33333C8.33325 1.06811 8.2279 0.813758 8.04036 0.626221C7.85282 0.438685 7.59847 0.333328 7.33325 0.333328C7.06804 0.333328 6.81368 0.438685 6.62615 0.626221C6.43861 0.813758 6.33325 1.06811 6.33325 1.33333V3.00533C3.03059 3.05799 0.333252 5.63933 0.333252 9C0.333252 9.83333 0.388585 10.8073 0.449919 11.6313C0.569252 13.228 1.75925 14.5667 3.39992 14.7633C4.42525 14.8867 5.78925 15 7.33325 15C8.87725 15 10.2413 14.8867 11.2666 14.7633C12.9073 14.5667 14.0973 13.228 14.2166 11.6313C14.2779 10.8073 14.3333 9.834 14.3333 9C14.3333 5.63933 11.6359 3.05799 8.33325 3.00533V1.33333ZM5.66659 8.66666C5.66659 8.40145 5.56123 8.14709 5.37369 7.95955C5.18616 7.77202 4.9318 7.66666 4.66659 7.66666C4.40137 7.66666 4.14701 7.77202 3.95948 7.95955C3.77194 8.14709 3.66659 8.40145 3.66659 8.66666V9.33333C3.66659 9.59855 3.77194 9.8529 3.95948 10.0404C4.14701 10.228 4.40137 10.3333 4.66659 10.3333C4.9318 10.3333 5.18616 10.228 5.37369 10.0404C5.56123 9.8529 5.66659 9.59855 5.66659 9.33333V8.66666ZM10.9999 8.66666C10.9999 8.40145 10.8946 8.14709 10.707 7.95955C10.5195 7.77202 10.2651 7.66666 9.99992 7.66666C9.7347 7.66666 9.48035 7.77202 9.29281 7.95955C9.10528 8.14709 8.99992 8.40145 8.99992 8.66666V9.33333C8.99992 9.59855 9.10528 9.8529 9.29281 10.0404C9.48035 10.228 9.7347 10.3333 9.99992 10.3333C10.2651 10.3333 10.5195 10.228 10.707 10.0404C10.8946 9.8529 10.9999 9.59855 10.9999 9.33333V8.66666ZM26.4746 7.206C24.6926 5.90533 22.4446 6.43133 21.0513 7.82533L20.0866 8.78933C21.3453 9.506 22.9866 10.6627 24.8286 12.5047C26.8453 14.5213 28.0406 16.298 28.7359 17.594C28.8355 17.7789 28.925 17.954 29.0046 18.1193L30.1746 16.9487C31.5679 15.5553 32.0946 13.3073 30.7946 11.5253C30.1892 10.7012 29.5214 9.92468 28.7973 9.20266C28.0752 8.47871 27.2987 7.8112 26.4746 7.206ZM8.08659 20.7893L18.6133 10.264L18.7946 10.3593C19.9179 10.9627 21.5359 12.0393 23.4146 13.9193C25.2946 15.798 26.3719 17.416 26.9746 18.5393C27.2146 18.986 27.3793 19.356 27.4906 19.634L17.0046 30.1193C16.9246 29.9549 16.835 29.7798 16.7359 29.594C16.0406 28.2973 14.8453 26.5213 12.8293 24.5047C10.9866 22.6627 9.34525 21.506 8.08659 20.7893ZM14.9733 30.54C15.1393 30.848 15.2693 31.12 15.3706 31.3493C15.0906 31.4587 14.7926 31.5313 14.4799 31.5587C13.3986 31.6527 11.3933 31.748 8.57392 31.552C8.02251 31.5137 7.50352 31.2774 7.11268 30.8866C6.72184 30.4957 6.4855 29.9767 6.44725 29.4253C6.25192 26.6067 6.34725 24.6013 6.44125 23.52C6.47792 23.1 6.59592 22.7067 6.77525 22.3493L6.79392 22.3593C7.91725 22.9627 9.53525 24.0393 11.4139 25.9193C13.2939 27.798 14.3713 29.416 14.9739 30.5393" fill="black"/>
</g>
<defs>
<clipPath id="clip0_85_7">
<rect width="32" height="32" fill="white"/>
</clipPath>
</defs>
</svg>
