<svg width="32" height="33" viewBox="0 0 32 33" fill="none" xmlns="http://www.w3.org/2000/svg">
<path d="M26.9474 0.500001C28.2874 0.500001 29.5726 1.0619 30.5201 2.0621C31.4677 3.06229 32 4.41885 32 5.83333C32 7.24782 31.4677 8.60438 30.5201 9.60457C29.5726 10.6048 28.2874 11.1667 26.9474 11.1667H21.8947C20.8497 11.1669 19.8303 10.8251 18.977 10.1883C18.1237 9.5515 17.4784 8.6511 17.1301 7.61111H15.1579C13.3053 7.61111 11.7895 9.21111 11.7895 11.1667V11.4707C12.7745 11.8387 13.6272 12.5199 14.2303 13.4206C14.8334 14.3212 15.1573 15.3971 15.1573 16.5C15.1573 17.6029 14.8334 18.6788 14.2303 19.5794C13.6272 20.4801 12.7745 21.1613 11.7895 21.5293V21.8333C11.7895 23.7889 13.3053 25.3889 15.1579 25.3889H17.1284C17.4769 24.3486 18.1224 23.448 18.976 22.8112C19.8297 22.1744 20.8494 21.8328 21.8947 21.8333H26.9474C28.2874 21.8333 29.5726 22.3952 30.5201 23.3954C31.4677 24.3956 32 25.7522 32 27.1667C32 28.5812 31.4677 29.9377 30.5201 30.9379C29.5726 31.9381 28.2874 32.5 26.9474 32.5H21.8947C20.8497 32.5002 19.8303 32.1584 18.977 31.5216C18.1237 30.8848 17.4784 29.9844 17.1301 28.9444H15.1579C11.4358 28.9444 8.42105 25.7622 8.42105 21.8333H5.05263C3.71259 21.8333 2.42743 21.2714 1.47988 20.2712C0.532329 19.271 0 17.9145 0 16.5C0 15.0855 0.532329 13.729 1.47988 12.7288C2.42743 11.7286 3.71259 11.1667 5.05263 11.1667H8.42105C8.42105 9.28068 9.13083 7.47194 10.3942 6.13835C11.6576 4.80476 13.3712 4.05556 15.1579 4.05556H17.1284C17.4769 3.01528 18.1224 2.11468 18.976 1.47788C19.8297 0.841077 20.8494 0.499422 21.8947 0.500001H26.9474ZM26.9474 25.3889H21.8947C21.4481 25.3889 21.0197 25.5762 20.7038 25.9096C20.388 26.243 20.2105 26.6952 20.2105 27.1667C20.2105 27.6382 20.388 28.0903 20.7038 28.4237C21.0197 28.7571 21.4481 28.9444 21.8947 28.9444H26.9474C27.394 28.9444 27.8224 28.7571 28.1383 28.4237C28.4541 28.0903 28.6316 27.6382 28.6316 27.1667C28.6316 26.6952 28.4541 26.243 28.1383 25.9096C27.8224 25.5762 27.394 25.3889 26.9474 25.3889ZM10.1053 14.7222H5.05263C4.60595 14.7222 4.17757 14.9095 3.86172 15.2429C3.54586 15.5763 3.36842 16.0285 3.36842 16.5C3.36842 16.9715 3.54586 17.4237 3.86172 17.7571C4.17757 18.0905 4.60595 18.2778 5.05263 18.2778H10.1053C10.5519 18.2778 10.9803 18.0905 11.2962 17.7571C11.612 17.4237 11.7895 16.9715 11.7895 16.5C11.7895 16.0285 11.612 15.5763 11.2962 15.2429C10.9803 14.9095 10.5519 14.7222 10.1053 14.7222ZM26.9474 4.05556H21.8947C21.4481 4.05556 21.0197 4.24286 20.7038 4.57626C20.388 4.90965 20.2105 5.36184 20.2105 5.83333C20.2105 6.30483 20.388 6.75701 20.7038 7.09041C21.0197 7.42381 21.4481 7.61111 21.8947 7.61111H26.9474C27.394 7.61111 27.8224 7.42381 28.1383 7.09041C28.4541 6.75701 28.6316 6.30483 28.6316 5.83333C28.6316 5.36184 28.4541 4.90965 28.1383 4.57626C27.8224 4.24286 27.394 4.05556 26.9474 4.05556Z" fill="#FCF8ED"/>
</svg>
