<svg width="16" height="16" viewBox="0 0 16 16" fill="none" xmlns="http://www.w3.org/2000/svg">
<path d="M4.74992 1C5.00092 1 5.22792 1.15 5.32592 1.3815L7.86192 7.376L6.90792 8.3295L6.23992 6.75H3.25992L2.57492 8.3685C2.50834 8.51812 2.38569 8.63563 2.23336 8.69576C2.08103 8.75588 1.91119 8.75381 1.76036 8.69C1.60954 8.62618 1.48979 8.50572 1.42687 8.35452C1.36396 8.20332 1.3629 8.03347 1.42392 7.8815L4.17392 1.3815C4.22179 1.26833 4.30197 1.17178 4.40442 1.10393C4.50686 1.03607 4.62704 0.999924 4.74992 1ZM5.71092 5.5L4.74992 3.229L3.78992 5.5H5.71092ZM10.6299 5.664C11.0568 5.24627 11.6313 5.0138 12.2285 5.01707C12.8258 5.02034 13.3977 5.25907 13.82 5.68144C14.2423 6.10381 14.4809 6.67572 14.4841 7.27299C14.4873 7.87026 14.2547 8.44467 13.8369 8.8715L9.12792 13.58C8.88754 13.8204 8.58983 13.9956 8.26292 14.089L5.13642 14.9825C5.0507 15.007 4.96001 15.0081 4.87372 14.9857C4.78744 14.9633 4.70871 14.9183 4.64568 14.8552C4.58265 14.7922 4.53761 14.7135 4.51524 14.6272C4.49287 14.5409 4.49396 14.4502 4.51842 14.3645L5.41092 11.239C5.50431 10.9121 5.67949 10.6144 5.91992 10.374L10.6299 5.664Z" fill="black"/>
</svg>
