<svg width="31" height="31" viewBox="0 0 31 31" fill="none" xmlns="http://www.w3.org/2000/svg">
<path d="M19.685 2.58325H14.6552C12.3767 2.58325 10.571 2.58325 9.15921 2.77442C7.70479 2.97075 6.52808 3.38409 5.60067 4.31538C4.67196 5.24667 4.25992 6.42854 4.06488 7.88813C3.875 9.30638 3.875 11.1186 3.875 13.4061V20.9469C3.875 22.8947 5.06333 24.5635 6.75154 25.2636C6.665 24.0882 6.665 22.4413 6.665 21.0696V14.5983C6.665 12.9437 6.665 11.5164 6.81742 10.3746C6.98146 9.15008 7.35088 7.97725 8.29896 7.02529C9.24704 6.07334 10.416 5.70263 11.6353 5.53729C12.772 5.38488 14.1928 5.38488 15.8423 5.38488H19.8077C21.4559 5.38488 22.8741 5.38488 24.0121 5.53729C23.6712 4.66709 23.076 3.91979 22.3042 3.39285C21.5323 2.8659 20.6196 2.58378 19.685 2.58325Z" fill="black"/>
<path d="M8.5249 14.7212C8.5249 11.2001 8.5249 9.43955 9.61507 8.34551C10.7039 7.25146 12.4567 7.25146 15.9649 7.25146H19.6849C23.1918 7.25146 24.9459 7.25146 26.036 8.34551C27.1262 9.43955 27.1249 11.2001 27.1249 14.7212V20.947C27.1249 24.4681 27.1249 26.2286 26.036 27.3227C24.9459 28.4167 23.1918 28.4167 19.6849 28.4167H15.9649C12.458 28.4167 10.7039 28.4167 9.61507 27.3227C8.5249 26.2286 8.5249 24.4681 8.5249 20.947V14.7212Z" fill="black"/>
</svg>
