<svg width="71" height="71" viewBox="0 0 71 71" fill="none" xmlns="http://www.w3.org/2000/svg">
<g clip-path="url(#clip0_14_5)">
<path d="M65.0787 14.7963H5.92129V5.92129H47.3426V11.8426H53.25V5.92129C53.25 2.64863 50.6014 0 47.3287 0H5.92129C2.64863 0 0 2.64863 0 5.92129V65.0926C0 68.3514 2.64863 71 5.92129 71H65.0926C68.3652 71 71.0139 68.3514 71.0139 65.0787V53.25H56.2037C52.9311 53.25 50.2824 50.6014 50.2824 47.3287V38.4537C50.2824 35.1949 52.9311 32.5324 56.2037 32.5324H71V20.7037C71 17.4449 68.3514 14.7963 65.0787 14.7963ZM56.2037 47.3287H71V38.4537H56.2037V47.3287Z" fill="#FCF8ED"/>
</g>
<defs>
<clipPath id="clip0_14_5">
<rect width="71" height="71" fill="white"/>
</clipPath>
</defs>
</svg>
