<svg width="14" height="14" viewBox="0 0 14 14" fill="none" xmlns="http://www.w3.org/2000/svg">
<path fill-rule="evenodd" clip-rule="evenodd" d="M1.25 11.625V2.25C1.25 1.65326 1.48705 1.08097 1.90901 0.65901C2.33097 0.237053 2.90326 0 3.5 0L10.5 0C11.0967 0 11.669 0.237053 12.091 0.65901C12.5129 1.08097 12.75 1.65326 12.75 2.25V10C12.75 10.1989 12.671 10.3897 12.5303 10.5303C12.3897 10.671 12.1989 10.75 12 10.75H11.75V12.5H12C12.1989 12.5 12.3897 12.579 12.5303 12.7197C12.671 12.8603 12.75 13.0511 12.75 13.25C12.75 13.4489 12.671 13.6397 12.5303 13.7803C12.3897 13.921 12.1989 14 12 14H3.625C2.99511 14 2.39102 13.7498 1.94562 13.3044C1.50022 12.859 1.25 12.2549 1.25 11.625ZM10.25 10.75H3.625C3.39294 10.75 3.17038 10.8422 3.00628 11.0063C2.84219 11.1704 2.75 11.3929 2.75 11.625C2.75 11.8571 2.84219 12.0796 3.00628 12.2437C3.17038 12.4078 3.39294 12.5 3.625 12.5H10.25V10.75ZM10.81 4.772C10.7679 4.69078 10.7044 4.62266 10.6263 4.57505C10.5481 4.52744 10.4585 4.50218 10.367 4.502H8.05C7.91739 4.502 7.79021 4.55468 7.69645 4.64845C7.60268 4.74221 7.55 4.86939 7.55 5.002C7.55 5.13461 7.60268 5.26179 7.69645 5.35555C7.79021 5.44932 7.91739 5.502 8.05 5.502H9.4L7.499 8.186C7.446 8.26083 7.4146 8.34879 7.40823 8.44027C7.40186 8.53175 7.42077 8.62321 7.46289 8.70467C7.50501 8.78612 7.56871 8.85442 7.64704 8.9021C7.72537 8.94978 7.8153 8.975 7.907 8.975H10.511C10.6436 8.975 10.7708 8.92232 10.8646 8.82855C10.9583 8.73479 11.011 8.60761 11.011 8.475C11.011 8.34239 10.9583 8.21521 10.8646 8.12145C10.7708 8.02768 10.6436 7.975 10.511 7.975H8.874L10.774 5.291C10.8272 5.21622 10.8588 5.12824 10.8653 5.03669C10.8719 4.94515 10.8521 4.85357 10.81 4.772ZM5.815 2.63C5.75481 2.45091 5.6399 2.29525 5.4865 2.18497C5.33309 2.07469 5.14893 2.01537 4.96 2.01537C4.77107 2.01537 4.58691 2.07469 4.4335 2.18497C4.2801 2.29525 4.16519 2.45091 4.105 2.63L3.428 4.66L3.421 4.682L3.038 5.828C3.01719 5.89038 3.00886 5.95624 3.0135 6.02184C3.01814 6.08743 3.03566 6.15147 3.06505 6.2103C3.09444 6.26913 3.13513 6.32159 3.18479 6.36469C3.23445 6.40779 3.29212 6.44069 3.3545 6.4615C3.48048 6.50354 3.61799 6.49381 3.7368 6.43445C3.79563 6.40506 3.84809 6.36437 3.89119 6.31471C3.93429 6.26505 3.96719 6.20738 3.988 6.145L4.258 5.329H5.66L5.932 6.145C5.97404 6.27085 6.06434 6.37484 6.18305 6.4341C6.30176 6.49336 6.43915 6.50304 6.565 6.461C6.69085 6.41896 6.79484 6.32866 6.8541 6.20995C6.91336 6.09124 6.92304 5.95385 6.881 5.828L6.499 4.682L6.491 4.66L5.815 2.63ZM4.59 4.328L4.958 3.226L5.325 4.328H4.59Z" fill="black"/>
</svg>
