<svg width="35" height="36" viewBox="0 0 35 36" fill="none" xmlns="http://www.w3.org/2000/svg">
<path d="M16.4498 28.3005L29.3928 15.3575C27.2154 14.4479 25.2378 13.1196 23.5723 11.448C21.8999 9.78213 20.571 7.80394 19.661 5.6258L6.71804 18.5688C5.70829 19.5785 5.20254 20.0843 4.76854 20.6408C4.25648 21.2979 3.817 22.0084 3.45779 22.76C3.15504 23.397 2.92929 24.076 2.47779 25.4305L0.094289 32.5758C-0.015412 32.903 -0.0316877 33.2542 0.0472907 33.5901C0.126269 33.926 0.297371 34.2332 0.541364 34.4772C0.785357 34.7212 1.09257 34.8923 1.42847 34.9713C1.76436 35.0503 2.11563 35.034 2.44279 34.9243L9.58804 32.5408C10.9443 32.0893 11.6215 31.8636 12.2585 31.5608C13.0134 31.2015 13.7198 30.7645 14.3778 30.25C14.9343 29.816 15.44 29.3103 16.4498 28.3005ZM32.9838 11.7665C34.2743 10.476 34.9993 8.72573 34.9993 6.90067C34.9993 5.07562 34.2743 3.32531 32.9838 2.0348C31.6933 0.744288 29.943 0.0192871 28.1179 0.0192871C26.2929 0.0192871 24.5425 0.744288 23.252 2.0348L21.6998 3.58705L21.7663 3.7813C22.531 5.97016 23.7828 7.95678 25.4273 9.5913C27.1107 11.285 29.1669 12.5615 31.4315 13.3188L32.9838 11.7665Z" fill="#3C68C2"/>
</svg>
