<svg width="32" height="33" viewBox="0 0 32 33" fill="none" xmlns="http://www.w3.org/2000/svg">
<g clip-path="url(#clip0_26_35)">
<path d="M15.1112 20.0555C15.1112 19.8198 15.2049 19.5937 15.3716 19.427C15.5383 19.2603 15.7644 19.1667 16.0001 19.1667H23.1112V5.83332C23.1112 5.36182 22.9239 4.90964 22.5905 4.57624C22.2571 4.24284 21.8049 4.05554 21.3334 4.05554H9.66233L3.55566 10.1533V27.1667C3.55566 27.6381 3.74297 28.0903 4.07636 28.4237C4.40976 28.7571 4.86195 28.9444 5.33344 28.9444H21.3334C21.8049 28.9444 22.2571 28.7571 22.5905 28.4237C22.9239 28.0903 23.1112 27.6381 23.1112 27.1667V20.9444H16.0001C15.7644 20.9444 15.5383 20.8508 15.3716 20.6841C15.2049 20.5174 15.1112 20.2913 15.1112 20.0555ZM10.6668 11.1667H5.33344V10.8822L10.3912 5.83332H10.6668V11.1667Z" fill="#FCF8ED"/>
<path d="M26.0622 15.0333C25.8921 14.8877 25.6734 14.8116 25.4497 14.8202C25.226 14.8289 25.0138 14.9216 24.8555 15.0799C24.6972 15.2382 24.6044 15.4504 24.5958 15.6742C24.5871 15.8979 24.6632 16.1166 24.8089 16.2867L27.6978 19.1667H23.1111V20.9444H27.7244L24.8089 23.86C24.7158 23.9397 24.6402 24.0377 24.5869 24.148C24.5335 24.2583 24.5035 24.3784 24.4988 24.5008C24.4941 24.6232 24.5147 24.7453 24.5594 24.8594C24.6041 24.9735 24.6719 25.077 24.7585 25.1637C24.8451 25.2503 24.9487 25.3181 25.0628 25.3628C25.1769 25.4075 25.2989 25.4281 25.4214 25.4234C25.5438 25.4186 25.6639 25.3887 25.7742 25.3353C25.8844 25.2819 25.9825 25.2064 26.0622 25.1133L31.1111 20.0555L26.0622 15.0333Z" fill="#FCF8ED"/>
</g>
<defs>
<clipPath id="clip0_26_35">
<rect width="32" height="32" fill="white" transform="translate(0 0.5)"/>
</clipPath>
</defs>
</svg>
