<svg width="32" height="33" viewBox="0 0 32 33" fill="none" xmlns="http://www.w3.org/2000/svg">
<path d="M27.274 5.22599L30.626 5.89599C30.806 5.93199 30.954 6.06399 31.006 6.24199C31.0323 6.32846 31.0346 6.42043 31.0128 6.50812C30.9909 6.59581 30.9457 6.67594 30.882 6.73999L28.136 9.48799C27.807 9.81519 27.362 9.9992 26.898 9.99999H24.62L18.9 15.722C19.0091 16.134 19.0292 16.5646 18.9589 16.985C18.8885 17.4054 18.7294 17.806 18.4921 18.1601C18.2549 18.5142 17.9448 18.8137 17.5827 19.0386C17.2206 19.2634 16.8148 19.4086 16.3922 19.4643C15.9696 19.52 15.54 19.4851 15.132 19.3617C14.7239 19.2384 14.3469 19.0295 14.0259 18.749C13.705 18.4686 13.4474 18.1229 13.2705 17.7351C13.0936 17.3473 13.0014 16.9262 13 16.5C12.9999 16.0396 13.1057 15.5854 13.3093 15.1726C13.5129 14.7597 13.8088 14.3992 14.1741 14.119C14.5394 13.8388 14.9642 13.6465 15.4157 13.5568C15.8673 13.4671 16.3334 13.4826 16.778 13.602L22.5 7.87799V5.60399C22.5 5.13999 22.684 4.69399 23.012 4.36599L25.76 1.61799C25.8241 1.55425 25.9042 1.50906 25.9919 1.48723C26.0796 1.46539 26.1715 1.46773 26.258 1.49399C26.436 1.54599 26.568 1.69399 26.604 1.87399L27.274 5.22599Z" fill="#FCF8ED"/>
<path d="M3.99989 16.5001C4.00194 18.216 4.37198 19.9115 5.08502 21.4723C5.79807 23.033 6.83755 24.4227 8.13334 25.5476C9.42913 26.6725 10.9511 27.5063 12.5966 27.993C14.242 28.4796 15.9727 28.6077 17.6719 28.3687C19.3711 28.1296 20.9992 27.5288 22.4465 26.607C23.8938 25.6852 25.1266 24.4637 26.0616 23.0249C26.9967 21.5862 27.6123 19.9636 27.867 18.2667C28.1217 16.5698 28.0094 14.8379 27.5379 13.1881C27.4717 12.9953 27.4454 12.7911 27.4606 12.5879C27.4759 12.3847 27.5323 12.1866 27.6265 12.0059C27.7207 11.8252 27.8507 11.6655 28.0086 11.5366C28.1665 11.4078 28.349 11.3124 28.5449 11.2562C28.7408 11.2001 28.9461 11.1845 29.1483 11.2102C29.3505 11.236 29.5453 11.3026 29.7209 11.4061C29.8965 11.5095 30.0492 11.6476 30.1697 11.812C30.2902 11.9763 30.376 12.1635 30.4219 12.3621C31.3349 15.5571 31.1615 18.9649 29.9288 22.0508C28.6961 25.1366 26.4738 27.7259 23.6107 29.4125C20.7476 31.0991 17.4056 31.7875 14.109 31.3697C10.8124 30.9519 7.74777 29.4516 5.39589 27.1041C3.04657 24.7528 1.54464 21.6879 1.1259 18.3905C0.707154 15.0932 1.39531 11.7501 3.08234 8.88623C4.76936 6.02235 7.3597 3.79981 10.4467 2.56757C13.5337 1.33533 16.9425 1.16315 20.1379 2.07809C20.5184 2.18931 20.8394 2.44662 21.0307 2.79379C21.222 3.14096 21.2682 3.54976 21.159 3.93084C21.0499 4.31193 20.7943 4.63431 20.4482 4.82755C20.1021 5.02078 19.6936 5.06915 19.3119 4.96209C17.525 4.44899 15.6434 4.35806 13.8154 4.69649C11.9874 5.03492 10.263 5.79344 8.77828 6.91223C7.29354 8.03102 6.08905 9.47947 5.25981 11.1434C4.43056 12.8072 3.99925 14.641 3.99989 16.5001Z" fill="#FCF8ED"/>
<path d="M9.99998 16.5C10.0001 17.5932 10.2987 18.6656 10.8635 19.6015C11.4283 20.5375 12.238 21.3014 13.2051 21.811C14.1723 22.3206 15.2602 22.5565 16.3515 22.4932C17.4429 22.43 18.4962 22.0699 19.398 21.452C20.2996 20.8324 21.0146 19.9782 21.4658 18.9817C21.917 17.9852 22.0872 16.8842 21.958 15.798C21.923 15.5344 21.959 15.2662 22.0621 15.0211C22.1652 14.776 22.3318 14.5629 22.5447 14.4035C22.7576 14.2442 23.0091 14.1445 23.2733 14.1147C23.5375 14.0849 23.8049 14.1261 24.048 14.234C24.291 14.3405 24.5014 14.5095 24.6577 14.7238C24.8141 14.9381 24.9108 15.1901 24.938 15.454C25.1553 17.3102 24.7894 19.188 23.891 20.8268C22.9926 22.4656 21.6064 23.7841 19.9247 24.5992C18.2429 25.4144 16.3492 25.6858 14.5062 25.3758C12.6632 25.0658 10.9624 24.1898 9.63991 22.8693C8.31741 21.5488 7.43878 19.8494 7.12599 18.0068C6.81319 16.1643 7.08174 14.2701 7.89435 12.5872C8.70697 10.9042 10.0233 9.51596 11.6608 8.6151C13.2982 7.71425 15.1755 7.34548 17.032 7.55997C17.2308 7.57841 17.4239 7.63636 17.6 7.7304C17.7761 7.82445 17.9317 7.9527 18.0576 8.10764C18.1834 8.26259 18.2771 8.4411 18.3332 8.63273C18.3892 8.82436 18.4064 9.02524 18.3837 9.22359C18.3611 9.42195 18.2991 9.61379 18.2014 9.78788C18.1036 9.96196 17.9721 10.1148 17.8146 10.2374C17.657 10.36 17.4765 10.4499 17.2838 10.5019C17.091 10.5538 16.8898 10.5668 16.692 10.54C15.8513 10.4424 14.9995 10.5237 14.1925 10.7787C13.3854 11.0336 12.6415 11.4564 12.0095 12.0193C11.3775 12.5822 10.8717 13.2724 10.5253 14.0447C10.179 14.8169 9.99997 15.6536 9.99998 16.5Z" fill="#FCF8ED"/>
</svg>
