<svg width="32" height="33" viewBox="0 0 32 33" fill="none" xmlns="http://www.w3.org/2000/svg">
<path d="M29.8956 27.6L24.2706 13.975C24.1667 13.7234 23.9905 13.5083 23.7643 13.3569C23.538 13.2055 23.2719 13.1247 22.9997 13.1247C22.7275 13.1247 22.4614 13.2055 22.2351 13.3569C22.0089 13.5083 21.8326 13.7234 21.7288 13.975L16.1038 27.6C16.0338 27.7671 15.9976 27.9464 15.9971 28.1275C15.9967 28.3086 16.032 28.4881 16.1011 28.6555C16.1702 28.8229 16.2717 28.9751 16.3998 29.1032C16.5279 29.2313 16.68 29.3328 16.8474 29.4019C17.0148 29.471 17.1943 29.5064 17.3754 29.5059C17.5566 29.5055 17.7358 29.4693 17.9029 29.3994C18.07 29.3294 18.2216 29.2272 18.3491 29.0985C18.4766 28.9698 18.5773 28.8171 18.6456 28.6494L19.7913 25.875H26.2081L27.3538 28.6494C27.4576 28.9011 27.6339 29.1163 27.8602 29.2678C28.0865 29.4192 28.3527 29.5 28.625 29.5C28.8509 29.4999 29.0734 29.4441 29.2726 29.3375C29.4718 29.2309 29.6418 29.0769 29.7673 28.8891C29.8929 28.7013 29.9702 28.4854 29.9925 28.2605C30.0147 28.0357 29.9813 27.8088 29.895 27.6H29.8956ZM20.9269 23.125L23 18.1031L25.0731 23.125H20.9269ZM16.74 21.9325C16.9536 21.6374 17.0414 21.2696 16.9841 20.9099C16.9268 20.5502 16.7291 20.2279 16.4344 20.0138C16.4219 20.0044 15.4969 19.3181 14.1538 17.8431C16.6319 14.4881 18.0356 10.6712 18.6081 8.875H20.625C20.9897 8.875 21.3394 8.73013 21.5973 8.47227C21.8551 8.21441 22 7.86467 22 7.5C22 7.13533 21.8551 6.78559 21.5973 6.52773C21.3394 6.26987 20.9897 6.125 20.625 6.125H13.375V4.875C13.375 4.51033 13.2301 4.16059 12.9723 3.90273C12.7144 3.64487 12.3647 3.5 12 3.5C11.6353 3.5 11.2856 3.64487 11.0277 3.90273C10.7699 4.16059 10.625 4.51033 10.625 4.875V6.125H3.375C3.01033 6.125 2.66059 6.26987 2.40273 6.52773C2.14487 6.78559 2 7.13533 2 7.5C2 7.86467 2.14487 8.21441 2.40273 8.47227C2.66059 8.73013 3.01033 8.875 3.375 8.875H15.7031C15.1081 10.5594 14.0125 13.2188 12.3413 15.6475C10.3781 13.0425 9.64875 11.3569 9.64312 11.3431C9.49941 11.011 9.23055 10.7489 8.89485 10.6137C8.55916 10.4785 8.1837 10.4811 7.84991 10.621C7.51613 10.7608 7.25092 11.0266 7.11182 11.3607C6.97273 11.6948 6.97095 12.0702 7.10687 12.4056C7.14313 12.4919 8.01625 14.545 10.4106 17.6513C10.4681 17.7256 10.525 17.7981 10.5819 17.8706C8.12937 20.6425 5.72312 22.3619 4.71625 22.9169C4.39608 23.0915 4.1584 23.3862 4.05549 23.736C3.95258 24.0859 3.99287 24.4623 4.1675 24.7825C4.34213 25.1027 4.63679 25.3403 4.98666 25.4433C5.33654 25.5462 5.71296 25.5059 6.03312 25.3312C6.16813 25.2575 9.07063 23.6506 12.385 19.9819C13.7925 21.4869 14.76 22.1969 14.8181 22.2381C14.9644 22.3444 15.1301 22.4207 15.3059 22.4628C15.4817 22.5049 15.6641 22.5119 15.8426 22.4835C16.0211 22.455 16.1922 22.3917 16.3462 22.297C16.5002 22.2024 16.634 22.0783 16.74 21.9319V21.9325Z" fill="#FCF8ED"/>
</svg>
