<svg width="35" height="36" viewBox="0 0 35 36" fill="none" xmlns="http://www.w3.org/2000/svg">
<path d="M17.5 23.6438C15.8755 23.6438 14.3176 22.9985 13.1689 21.8498C12.0203 20.7012 11.375 19.1433 11.375 17.5188C11.375 15.8944 12.0203 14.3364 13.1689 13.1878C14.3176 12.0391 15.8755 11.3938 17.5 11.3938C19.1244 11.3938 20.6823 12.0391 21.831 13.1878C22.9797 14.3364 23.625 15.8944 23.625 17.5188C23.625 19.1433 22.9797 20.7012 21.831 21.8498C20.6823 22.9985 19.1244 23.6438 17.5 23.6438ZM30.5025 19.2163C30.5725 18.6563 30.625 18.0963 30.625 17.5188C30.625 16.9413 30.5725 16.3638 30.5025 15.7688L34.195 12.9163C34.5275 12.6538 34.615 12.1813 34.405 11.7963L30.905 5.7413C30.695 5.3563 30.2225 5.1988 29.8375 5.3563L25.48 7.1063C24.57 6.4238 23.625 5.8288 22.5225 5.3913L21.875 0.753802C21.8394 0.547682 21.7321 0.360799 21.5719 0.226267C21.4117 0.0917351 21.2091 0.0182392 21 0.018802H14C13.5625 0.018802 13.195 0.333802 13.125 0.753802L12.4775 5.3913C11.375 5.8288 10.43 6.4238 9.51996 7.1063L5.16246 5.3563C4.77746 5.1988 4.30496 5.3563 4.09496 5.7413L0.594963 11.7963C0.367463 12.1813 0.472463 12.6538 0.804963 12.9163L4.49746 15.7688C4.42746 16.3638 4.37496 16.9413 4.37496 17.5188C4.37496 18.0963 4.42746 18.6563 4.49746 19.2163L0.804963 22.1213C0.472463 22.3838 0.367463 22.8563 0.594963 23.2413L4.09496 29.2963C4.30496 29.6813 4.77746 29.8213 5.16246 29.6813L9.51996 27.9138C10.43 28.6138 11.375 29.2088 12.4775 29.6463L13.125 34.2838C13.195 34.7038 13.5625 35.0188 14 35.0188H21C21.4375 35.0188 21.805 34.7038 21.875 34.2838L22.5225 29.6463C23.625 29.1913 24.57 28.6138 25.48 27.9138L29.8375 29.6813C30.2225 29.8213 30.695 29.6813 30.905 29.2963L34.405 23.2413C34.615 22.8563 34.5275 22.3838 34.195 22.1213L30.5025 19.2163Z" fill="#4168B2"/>
</svg>
