<svg width="30" height="19" viewBox="0 0 30 19" fill="none" xmlns="http://www.w3.org/2000/svg">
<path d="M20.3333 8.16669C22.5466 8.16669 24.3199 6.38002 24.3199 4.16669C24.3199 1.95335 22.5466 0.166687 20.3333 0.166687C18.1199 0.166687 16.3333 1.95335 16.3333 4.16669C16.3333 6.38002 18.1199 8.16669 20.3333 8.16669ZM9.66659 8.16669C11.8799 8.16669 13.6533 6.38002 13.6533 4.16669C13.6533 1.95335 11.8799 0.166687 9.66659 0.166687C7.45325 0.166687 5.66659 1.95335 5.66659 4.16669C5.66659 6.38002 7.45325 8.16669 9.66659 8.16669ZM9.66659 10.8334C6.55992 10.8334 0.333252 12.3934 0.333252 15.5V18.8334H18.9999V15.5C18.9999 12.3934 12.7733 10.8334 9.66659 10.8334ZM20.3333 10.8334C19.9466 10.8334 19.5066 10.86 19.0399 10.9C20.5866 12.02 21.6666 13.5267 21.6666 15.5V18.8334H29.6666V15.5C29.6666 12.3934 23.4399 10.8334 20.3333 10.8334Z" fill="#FCF8ED"/>
</svg>
