<svg width="24" height="24" viewBox="0 0 24 24" fill="none" xmlns="http://www.w3.org/2000/svg">
<path d="M19.1841 7.80493L16.2191 4.83793C14.1921 2.80793 13.1791 1.79493 12.0901 2.03493C11.0011 2.27493 10.5091 3.62193 9.52212 6.31493L8.85412 8.13793C8.59112 8.85593 8.45912 9.21493 8.22212 9.49293C8.11617 9.61793 7.99527 9.72943 7.86212 9.82493C7.56612 10.0379 7.19812 10.1389 6.46212 10.3419C4.80212 10.7999 3.97112 11.0289 3.65812 11.5719C3.52281 11.807 3.45241 12.0737 3.45412 12.3449C3.45812 12.9719 4.06712 13.5809 5.28412 14.7999L6.70012 16.2159L2.22412 20.6959C2.08773 20.8405 2.01305 21.0326 2.01595 21.2313C2.01885 21.4301 2.09909 21.6199 2.23964 21.7604C2.38019 21.901 2.56998 21.9812 2.76873 21.9841C2.96748 21.987 3.15953 21.9123 3.30412 21.7759L7.77912 17.2959L9.24512 18.7639C10.4711 19.9899 11.0841 20.6039 11.7151 20.6039C11.9801 20.6039 12.2411 20.5359 12.4721 20.4039C13.0201 20.0909 13.2501 19.2549 13.7111 17.5819C13.9131 16.8469 14.0141 16.4799 14.2261 16.1829C14.3195 16.0536 14.4268 15.9363 14.5481 15.8309C14.8231 15.5929 15.1801 15.4589 15.8931 15.1909L17.7371 14.4979C20.4011 13.4979 21.7331 12.9969 21.9671 11.9119C22.2021 10.8259 21.1971 9.81893 19.1841 7.80493Z" fill="black"/>
</svg>
