<svg width="42" height="42" viewBox="0 0 42 42" fill="none" xmlns="http://www.w3.org/2000/svg">
<path d="M21 38.0625C28.9126 35.3351 34.5529 28.9949 35.4375 20.9221C35.6825 17.4178 35.6624 13.9002 35.3754 10.3985C35.3376 9.84655 35.0954 9.32851 34.6961 8.94565C34.2967 8.56279 33.7689 8.34265 33.2159 8.32825C29.6362 8.218 25.4756 7.62125 22.2609 4.45463C21.9251 4.12306 21.4723 3.93713 21.0004 3.93713C20.5286 3.93713 20.0757 4.12306 19.74 4.45463C16.5244 7.62125 12.3637 8.218 8.78498 8.32825C8.23193 8.34265 7.70413 8.56279 7.30477 8.94565C6.90541 9.32851 6.66319 9.84655 6.62548 10.3985C6.33845 13.8997 6.31739 17.4177 6.56248 20.9221C7.44798 28.9949 13.0874 35.3351 21 38.0625Z" stroke="#FCF8ED" stroke-width="2" stroke-linecap="round" stroke-linejoin="round"/>
<path d="M15.4104 17.3285H26.5894C27.0129 17.3285 27.3568 17.6715 27.3568 18.0959V26.3577C27.3568 26.5612 27.276 26.7564 27.1321 26.9003C26.9881 27.0442 26.793 27.125 26.5894 27.125H15.4104C15.2069 27.125 15.0117 27.0442 14.8678 26.9003C14.7239 26.7564 14.6431 26.5612 14.6431 26.3577V18.095C14.6431 17.6707 14.9869 17.3268 15.4104 17.3268" stroke="#FCF8ED" stroke-width="2" stroke-linecap="round" stroke-linejoin="round"/>
<path d="M16.793 17.3285V15.5662C16.8154 14.4662 17.2681 13.4189 18.054 12.6489C18.8399 11.8789 19.8963 11.4476 20.9965 11.4476C22.0967 11.4476 23.1531 11.8789 23.9389 12.6489C24.7248 13.4189 25.1775 14.4662 25.2 15.5662V17.3285" stroke="#FCF8ED" stroke-width="2" stroke-linecap="round" stroke-linejoin="round"/>
<path d="M20.9965 23.8569C21.8968 23.8569 22.6266 23.1271 22.6266 22.2268C22.6266 21.3265 21.8968 20.5967 20.9965 20.5967C20.0962 20.5967 19.3663 21.3265 19.3663 22.2268C19.3663 23.1271 20.0962 23.8569 20.9965 23.8569Z" stroke="#FCF8ED" stroke-width="2" stroke-linecap="round" stroke-linejoin="round"/>
</svg>
